<?xml version="1.0" encoding="iso-8859-1"?>
<!-- Generator: Adobe Illustrator 19.0.0, SVG Export Plug-In . SVG Version: 6.00 Build 0)  -->
<svg version="1.1" id="Layer_1" xmlns="http://www.w3.org/2000/svg" xmlns:xlink="http://www.w3.org/1999/xlink" x="0px" y="0px"
	 viewBox="0 0 512.001 512.001" style="enable-background:new 0 0 512.001 512.001;" xml:space="preserve">
<g>
	<polygon style="fill:#FFFFFF;" points="283.11,8.961 248.827,8.961 248.827,205.584 340.445,205.584 	"/>
	<polygon style="fill:#FFFFFF;" points="248.827,306.417 248.827,503.04 283.11,503.04 340.445,306.417 	"/>
</g>
<polygon style="fill:#E0E0E0;" points="340.442,306.416 331.619,336.666 248.826,336.666 248.826,306.416 248.826,205.583 
	248.826,175.333 331.619,175.333 340.442,205.583 "/>
<path style="fill:#FFFFFF;" d="M489.675,220.355c-9.125-9.125-21.729-14.772-35.654-14.772H92.989l-54.077-59.491H10.498
	l37.026,110.916L10.498,367.924h28.415l55.912-61.508H454.02c27.85,0,50.416-22.566,50.416-50.416
	C504.437,242.075,498.8,229.47,489.675,220.355z"/>
<g>
	<polygon style="fill:#E0E0E0;" points="38.912,146.092 10.498,146.092 47.523,257.008 92.989,205.583 	"/>
	<polygon style="fill:#E0E0E0;" points="47.523,257.008 10.498,367.924 38.912,367.924 94.824,306.416 	"/>
</g>
<path d="M454.021,198.022H346.116L288.782,1.398h-47.517v196.624H96.338L42.254,138.53H0l39.554,118.478L0,375.487h42.255
	l55.917-61.508h143.094v196.624h47.517l57.334-196.624h107.905c31.97,0,57.979-26.009,57.979-57.979
	S485.991,198.022,454.021,198.022z M256.389,16.523h21.049l52.924,181.499h-73.973V16.523z M277.438,495.478h-21.049V313.979h73.973
	L277.438,495.478z M454.021,298.854H350.527H241.264H91.48l-55.917,61.508H20.994l34.504-103.353L20.994,153.655h14.569
	l54.084,59.491h151.617h109.262h103.495c23.63,0,42.854,19.224,42.854,42.854S477.651,298.854,454.021,298.854z"/>
<rect x="112.267" y="27.18" width="15.125" height="15.125"/>
<rect x="51.767" y="27.18" width="15.125" height="15.125"/>
<rect x="21.519" y="27.18" width="15.125" height="15.125"/>
<rect x="82.017" y="27.18" width="15.125" height="15.125"/>
<rect x="172.767" y="27.18" width="15.125" height="15.125"/>
<rect x="203.016" y="27.18" width="15.125" height="15.125"/>
<rect x="142.517" y="27.18" width="15.125" height="15.125"/>
<rect x="112.267" y="65.496" width="15.125" height="15.125"/>
<rect x="85.506" y="65.496" width="11.638" height="15.125"/>
<rect x="142.517" y="65.496" width="15.125" height="15.125"/>
<rect x="203.016" y="65.496" width="15.125" height="15.125"/>
<rect x="172.767" y="65.496" width="15.125" height="15.125"/>
<rect x="142.517" y="105.824" width="15.125" height="15.125"/>
<rect x="172.767" y="105.824" width="15.125" height="15.125"/>
<rect x="203.016" y="105.824" width="15.125" height="15.125"/>
<rect x="172.767" y="468.822" width="15.125" height="15.125"/>
<rect x="112.267" y="468.822" width="15.125" height="15.125"/>
<rect x="142.517" y="468.822" width="15.125" height="15.125"/>
<rect x="51.767" y="468.822" width="15.125" height="15.125"/>
<rect x="82.017" y="468.822" width="15.125" height="15.125"/>
<rect x="203.016" y="468.822" width="15.125" height="15.125"/>
<rect x="21.519" y="468.822" width="15.125" height="15.125"/>
<rect x="142.517" y="430.506" width="15.125" height="15.125"/>
<rect x="112.267" y="430.506" width="15.125" height="15.125"/>
<rect x="172.767" y="430.506" width="15.125" height="15.125"/>
<rect x="82.017" y="430.506" width="15.125" height="15.125"/>
<rect x="203.016" y="430.506" width="15.125" height="15.125"/>
<rect x="172.767" y="390.172" width="15.125" height="15.125"/>
<rect x="142.517" y="390.172" width="15.125" height="15.125"/>
<rect x="203.016" y="390.172" width="15.125" height="15.125"/>
<rect x="456.611" y="229.788" width="15.125" height="53.441"/>
<rect x="70.926" y="249.017" width="44.366" height="15.125"/>
<g>
</g>
<g>
</g>
<g>
</g>
<g>
</g>
<g>
</g>
<g>
</g>
<g>
</g>
<g>
</g>
<g>
</g>
<g>
</g>
<g>
</g>
<g>
</g>
<g>
</g>
<g>
</g>
<g>
</g>
</svg>
